<svg width="608" height="667" viewBox="0 0 608 667" fill="none" xmlns="http://www.w3.org/2000/svg">
<g clip-path="url(#clip0_345_198)">
<g clip-path="url(#clip1_345_198)">
<path d="M202.418 469.693C132.397 469.693 75.4368 412.422 75.4368 342.051C75.4368 271.666 132.404 214.403 202.418 214.403V245.535C149.471 245.535 106.408 288.822 106.408 342.051C106.408 395.274 149.471 438.56 202.418 438.56C255.357 438.56 298.428 395.274 298.428 342.051H329.399C329.399 412.422 272.439 469.693 202.418 469.693Z" fill="#0F172A"/>
<path d="M420.971 458.881C353.926 458.881 299.368 404.039 299.368 336.638H330.339C330.339 386.883 370.993 427.741 420.963 427.741C470.941 427.741 511.61 386.883 511.61 336.638C511.61 286.408 470.941 245.543 420.963 245.543V214.41C488.031 214.41 542.581 269.244 542.581 336.645C542.581 404.031 488.038 458.881 420.971 458.881Z" fill="#0F172A"/>
<path d="M313.913 501.215C278.839 501.215 246.197 487.156 221.999 461.64L244.414 440.157C253.351 449.653 264.128 457.207 276.081 462.354C288.034 467.501 300.91 470.131 313.913 470.083C344.288 470.083 373.208 455.386 391.252 430.762L416.197 449.238C404.363 465.321 388.95 478.399 371.19 487.424C353.429 496.449 333.814 501.172 313.913 501.215Z" fill="#0F172A"/>
<path d="M107.453 301.464C104.032 301.457 100.709 300.313 98.0013 298.212C95.2938 296.11 93.3532 293.167 92.4816 289.842C87.4969 270.656 84.975 250.908 84.9774 231.079C84.9774 103.662 188.096 0 314.846 0C441.603 0 544.722 103.662 544.722 231.079C544.722 247.56 542.991 264.003 539.568 279.959C539.177 281.994 538.386 283.93 537.241 285.653C536.096 287.376 534.62 288.852 532.9 289.994C531.181 291.137 529.251 291.923 527.225 292.306C525.199 292.689 523.118 292.661 521.102 292.225C519.087 291.789 517.179 290.952 515.489 289.765C513.8 288.577 512.363 287.063 511.264 285.31C510.164 283.557 509.424 281.602 509.086 279.557C508.749 277.513 508.82 275.422 509.297 273.406C512.259 259.496 513.754 245.311 513.758 231.086C513.758 120.833 424.521 31.1399 314.846 31.1399C205.178 31.1399 115.941 120.833 115.941 231.086C115.941 248.325 118.127 265.443 122.438 281.961C123.037 284.264 123.103 286.674 122.63 289.006C122.157 291.338 121.159 293.53 119.712 295.413C118.264 297.297 116.407 298.822 114.282 299.871C112.156 300.919 109.82 301.465 107.453 301.464Z" fill="#0F172A"/>
<path d="M233.21 134.127C229.144 134.127 225.117 134.932 221.359 136.495C217.602 138.059 214.188 140.352 211.312 143.242C208.436 146.132 206.154 149.564 204.598 153.34C203.041 157.117 202.24 161.164 202.239 165.252C202.239 169.34 203.039 173.388 204.595 177.165C206.151 180.942 208.431 184.374 211.307 187.265C214.182 190.156 217.595 192.449 221.352 194.014C225.109 195.579 229.136 196.384 233.203 196.385C241.417 196.386 249.295 193.107 255.104 187.269C260.913 181.431 264.177 173.513 264.178 165.256C264.179 156.999 260.917 149.08 255.109 143.241C249.302 137.402 241.425 134.128 233.21 134.127Z" fill="#0F172A"/>
<path d="M314.854 289.932C321.014 289.932 326.922 292.392 331.279 296.771C335.635 301.149 338.082 307.088 338.082 313.281C338.082 319.474 335.635 325.413 331.279 329.792C326.922 334.17 321.014 336.63 314.854 336.63C308.693 336.63 302.785 334.17 298.428 329.792C294.072 325.413 291.625 319.474 291.625 313.281C291.625 307.088 294.072 301.149 298.428 296.771C302.785 292.392 308.693 289.932 314.854 289.932ZM314.854 258.799C284.971 258.799 260.654 283.243 260.654 313.289C260.654 343.326 284.971 367.77 314.854 367.77C344.736 367.77 369.061 343.326 369.061 313.289C369.061 283.251 344.743 258.799 314.854 258.799Z" fill="#0F172A"/>
<path d="M318.71 452.492C303.523 452.492 287.187 447.783 271.992 434.564L258.699 422.994L271.79 411.207C293.945 391.24 298.503 374.826 298.54 374.661L328.653 381.919C328.191 383.989 324.155 399.578 307.006 419.568C329.131 426.758 349.644 411.275 350.681 410.465L369.561 435.134C359.185 443.164 340.096 452.492 318.71 452.492Z" fill="#0F172A"/>
<path d="M145.122 324.468H15.0381V293.336H145.122V324.468Z" fill="#0F172A"/>
<path d="M157.505 364.936H15.0381V333.811H157.505V364.936Z" fill="#0F172A"/>
<path d="M174.542 405.419H15.0381V374.279H174.542V405.419Z" fill="#0F172A"/>
<path d="M604.278 324.468H474.193V293.336H604.278V324.468Z" fill="#0F172A"/>
<path d="M604.278 364.936H461.803V333.811H604.278V364.936Z" fill="#0F172A"/>
<path d="M604.278 405.419H444.774V374.279H604.278V405.419Z" fill="#0F172A"/>
<path d="M426.946 245.535H202.418V214.403H426.946V245.535Z" fill="#0F172A"/>
<path d="M15.4857 667C13.4518 667.001 11.4377 666.599 9.55841 665.817C7.67916 665.035 5.97164 663.889 4.53347 662.443C3.09529 660.997 1.95466 659.281 1.17678 657.392C0.398897 655.503 -0.000978624 653.478 1.7985e-06 651.434C1.7985e-06 527.467 106.915 425.454 111.466 421.172C114.482 418.459 118.436 417.039 122.48 417.218C126.524 417.397 130.339 419.16 133.106 422.13C135.874 425.1 137.375 429.041 137.288 433.11C137.201 437.178 135.534 441.051 132.643 443.899C131.628 444.844 30.9714 541.121 30.9714 651.426C30.9724 653.471 30.5725 655.496 29.7948 657.386C29.017 659.275 27.8764 660.992 26.4384 662.438C25.0003 663.884 23.2928 665.032 21.4135 665.814C19.5342 666.597 17.5199 667 15.4857 667Z" fill="#0F172A"/>
<path d="M592.522 656.668C588.415 656.668 584.476 655.028 581.572 652.108C578.668 649.189 577.036 645.23 577.036 641.102C577.036 530.796 476.394 434.519 475.372 433.56C472.374 430.738 470.614 426.834 470.479 422.708C470.344 418.581 471.845 414.57 474.652 411.556C477.46 408.542 481.343 406.773 485.448 406.637C489.553 406.502 493.544 408.011 496.542 410.833C501.092 415.114 608 517.127 608 641.094C608.001 643.138 607.602 645.163 606.824 647.051C606.047 648.94 604.907 650.657 603.47 652.103C602.032 653.549 600.326 654.697 598.447 655.48C596.569 656.263 594.555 656.667 592.522 656.668Z" fill="#0F172A"/>
<path d="M391.103 134.127C373.991 134.127 360.139 148.059 360.139 165.26C360.139 182.46 373.991 196.392 391.103 196.392C399.317 196.392 407.195 193.112 413.003 187.274C418.812 181.435 422.075 173.516 422.075 165.26C422.075 157.003 418.812 149.084 413.003 143.246C407.195 137.407 399.317 134.127 391.103 134.127Z" fill="#0F172A"/>
<path d="M172.17 294.168C170.246 294.168 168.34 294.548 166.562 295.288C164.784 296.028 163.168 297.112 161.807 298.48C160.446 299.847 159.366 301.471 158.629 303.258C157.892 305.045 157.513 306.96 157.512 308.895C157.512 310.829 157.891 312.745 158.626 314.532C159.362 316.319 160.441 317.943 161.802 319.312C163.162 320.68 164.777 321.765 166.555 322.506C168.333 323.247 170.238 323.628 172.163 323.629C176.049 323.63 179.777 322.079 182.526 319.317C185.275 316.555 186.819 312.809 186.82 308.902C186.821 304.995 185.278 301.248 182.531 298.485C179.784 295.722 176.057 294.169 172.17 294.168Z" fill="#0F172A"/>
<path d="M184.553 334.643C180.666 334.643 176.939 336.195 174.191 338.958C171.443 341.72 169.899 345.467 169.899 349.374C169.899 353.28 171.443 357.027 174.191 359.789C176.939 362.552 180.666 364.104 184.553 364.104C186.505 364.148 188.446 363.8 190.263 363.079C192.079 362.359 193.734 361.281 195.13 359.909C196.527 358.537 197.636 356.898 198.394 355.089C199.151 353.279 199.541 351.336 199.541 349.374C199.541 347.411 199.151 345.468 198.394 343.658C197.636 341.849 196.527 340.21 195.13 338.838C193.734 337.466 192.079 336.388 190.263 335.668C188.446 334.947 186.505 334.599 184.553 334.643Z" fill="#0F172A"/>
<path d="M201.59 375.111C197.7 375.112 193.969 376.667 191.219 379.433C188.468 382.199 186.924 385.95 186.925 389.86C186.926 393.771 188.472 397.521 191.224 400.286C193.976 403.05 197.707 404.603 201.598 404.602C205.488 404.601 209.219 403.046 211.969 400.28C214.719 397.514 216.264 393.763 216.263 389.853C216.262 385.942 214.715 382.192 211.964 379.427C209.212 376.663 205.481 375.11 201.59 375.111Z" fill="#0F172A"/>
<path d="M447.049 294.168C443.161 294.166 439.431 295.716 436.679 298.478C433.928 301.239 432.38 304.986 432.376 308.895C432.376 311.806 433.235 314.653 434.844 317.074C436.452 319.495 438.739 321.383 441.415 322.498C444.091 323.613 447.035 323.906 449.876 323.34C452.718 322.773 455.328 321.373 457.378 319.316C459.428 317.258 460.825 314.637 461.393 311.781C461.96 308.926 461.673 305.966 460.568 303.275C459.463 300.583 457.588 298.282 455.182 296.661C452.776 295.04 449.945 294.173 447.049 294.168Z" fill="#0F172A"/>
<path d="M434.763 334.643C432.838 334.642 430.932 335.021 429.153 335.761C427.374 336.5 425.757 337.584 424.395 338.951C423.033 340.318 421.952 341.941 421.214 343.728C420.476 345.515 420.096 347.431 420.094 349.366C420.093 351.301 420.47 353.217 421.206 355.005C421.941 356.793 423.019 358.419 424.379 359.788C425.74 361.157 427.355 362.243 429.132 362.985C430.91 363.727 432.816 364.11 434.741 364.111C438.629 364.114 442.36 362.564 445.111 359.803C447.863 357.041 449.41 353.293 449.413 349.385C449.416 345.476 447.875 341.726 445.127 338.96C442.38 336.194 438.652 334.646 434.763 334.643Z" fill="#0F172A"/>
<path d="M417.726 375.111C413.838 375.111 410.11 376.664 407.361 379.427C404.612 382.19 403.068 385.938 403.068 389.845C403.068 393.753 404.612 397.501 407.361 400.264C410.11 403.027 413.838 404.579 417.726 404.579C421.613 404.58 425.342 403.029 428.091 400.266C430.841 397.504 432.386 393.757 432.387 389.849C432.388 385.941 430.845 382.193 428.097 379.429C425.349 376.666 421.613 375.112 417.726 375.111Z" fill="#0F172A"/>
</g>
</g>
<defs>
<clipPath id="clip0_345_198">
<rect width="608" height="667" fill="white"/>
</clipPath>
<clipPath id="clip1_345_198">
<rect width="608" height="667" fill="white"/>
</clipPath>
</defs>
</svg>
