<svg width="241" height="251" viewBox="0 0 241 251" fill="none" xmlns="http://www.w3.org/2000/svg">
<g clip-path="url(#clip0_365_101)">
<path d="M238.587 154.177C228.601 154.621 222.789 164.233 220.832 168.139C210.674 159.934 202.802 161.793 202.457 161.88L200.468 162.382L201.846 163.747C210.589 172.446 209.056 186.734 209.033 186.925C207.965 203.496 194.106 204.214 193.571 204.23C181.169 204.23 173.359 193.631 173.225 193.455C169.738 189.342 168.545 183.396 167.5 178.151L167.375 177.533C164.622 163.799 163.657 149.596 163.025 136.298C162.171 118.344 160.58 102.433 149.734 89.4737C137.279 74.6067 113.71 66.4273 97.312 63.9379C87.8028 62.4954 78.0304 62.0455 69.2232 62.5134C77.0973 55.9033 82.0406 46.5891 82.0406 36.2538C82.0406 16.263 63.6423 0 41.0232 0C18.4041 0 0 16.2656 0 36.2538C0 56.2419 18.4041 72.5075 41.0232 72.5075C43.0561 72.5075 45.0392 72.3317 46.9931 72.0784C44.6063 85.3608 26.4567 190.743 46.4286 213.676C36.1735 219.839 36.2028 226.379 36.2203 226.736C35.9542 229.569 37.013 232.154 39.3647 234.414C50.7108 245.313 89.4759 245.861 97.1336 245.861H97.6016L98.4411 245.868C99.4414 245.868 100.41 245.83 101.349 245.763L101.346 245.775C115.684 248.311 141.722 250.938 142.106 250.969C143.123 250.99 144.13 251 145.133 251C172.292 251 193.635 244.434 208.603 231.467C230.452 212.538 230.707 186.235 230.704 186.064C232.389 167.183 239.701 156.02 239.777 155.904L241 154.068L238.587 154.177ZM79.4344 36.2589C79.4344 50.958 68.7961 63.4648 53.981 68.1826C57.1224 59.6078 69.1033 19.4298 24.4589 5.66401C29.621 3.45441 35.2817 2.30552 41.0174 2.30335C62.2002 2.30335 79.4344 17.5349 79.4344 36.2589ZM2.59448 36.2589C2.59448 23.5918 10.4978 12.543 22.1598 6.70581C18.8136 15.0945 5.47561 55.3759 50.7752 69.0616C47.5928 69.818 44.3128 70.2055 41.0174 70.2145C19.8315 70.2145 2.59448 54.983 2.59448 36.2589ZM97.6104 243.57H97.1277C92.553 243.57 52.109 243.268 41.2748 232.86C39.4057 231.069 38.5984 229.13 38.8119 226.798C38.8061 226.648 38.7446 211.435 79.9697 206.505C80.0135 206.5 84.4157 205.696 90.2072 205.696C100.799 205.696 114.277 208.265 118.302 220.402C118.322 220.511 120.493 231.376 114.113 238.139C110.717 241.743 105.441 243.57 98.4294 243.57H97.6104ZM228.104 185.976C228.104 186.227 227.858 211.564 206.775 229.83C191.781 242.828 170.004 249.175 142.272 248.684C142.047 248.66 122.476 246.685 108.009 244.519C111.282 243.48 114.005 241.856 116.12 239.618C123.266 232.033 120.967 220.485 120.835 219.878C117.316 209.253 106.438 203.403 90.2101 203.403C84.1319 203.403 79.6245 204.225 79.5309 204.248C64.7713 206.011 55.0486 209.105 48.6311 212.448C31.204 193.282 44.112 105.313 48.479 78.8101C49.6809 78.6411 50.825 78.2375 51.8282 77.6287C53.8728 79.4072 59.1144 84.7093 59.7696 92.8318L62.364 92.6663C61.6533 83.8795 56.2098 78.2155 53.7938 76.106C54.0658 75.8372 54.3261 75.558 54.566 75.271C57.8654 76.8919 66.2865 81.3719 68.5417 85.9321L70.9255 85.0118C68.3574 79.826 59.5502 75.0875 55.9407 73.3141C56.0665 73.0995 56.1864 72.8875 56.3005 72.6756C59.0325 72.5773 72.1833 72.4274 80.6658 77.9699L82.2102 76.1215C73.8535 70.6618 61.8434 70.274 57.3447 70.3438C57.4793 69.9819 57.5904 69.6536 57.684 69.3589C60.611 68.1985 63.3736 66.7383 65.915 65.0081C75.3394 64.1938 86.2906 64.6074 96.8674 66.2128C112.791 68.6273 135.644 76.53 147.637 90.8516C158.05 103.283 159.588 118.836 160.422 136.404C161.06 149.785 162.031 164.08 164.812 177.944L164.935 178.56C165.979 183.784 167.281 190.293 171.087 194.771C171.432 195.252 179.724 206.541 193.618 206.541C193.787 206.536 210.419 205.773 211.621 187.119C211.691 186.53 213.122 173.376 205.344 163.941C208.237 164.013 213.754 165.086 220.393 170.957L221.847 172.242L222.537 170.533C222.59 170.406 227.308 158.985 236.311 156.819C234.071 160.932 229.437 171.016 228.104 185.976Z" fill="#003459"/>
<path d="M89.6749 102.286C94.1981 102.286 97.8649 99.0448 97.8649 95.0472C97.8649 91.0496 94.1981 87.8088 89.6749 87.8088C85.1517 87.8088 81.4849 91.0496 81.4849 95.0472C81.4849 99.0448 85.1517 102.286 89.6749 102.286Z" fill="#003459"/>
</g>
<defs>
<clipPath id="clip0_365_101">
<rect width="241" height="251" fill="white"/>
</clipPath>
</defs>
</svg>
